<svg xmlns="http://www.w3.org/2000/svg" width="325.38" height="72.683" viewBox="0 0 325.38 72.683"><g transform="translate(-122.62 -291.317)"><path d="M338,351.478l4.412-.41a5.86,5.86,0,0,0,1.642,3.281,4.853,4.853,0,0,0,3.284,1.025,5.015,5.015,0,0,0,3.283-.923,2.821,2.821,0,0,0,1.129-2.152,1.946,1.946,0,0,0-.513-1.333,2.781,2.781,0,0,0-1.642-.923c-.513-.2-1.744-.512-3.591-1.025a12.033,12.033,0,0,1-5.131-2.255,6,6,0,0,1-2.052-4.51,5.757,5.757,0,0,1,.923-3.178,6.151,6.151,0,0,1,2.771-2.255,11.3,11.3,0,0,1,4.412-.82c2.873,0,4.926.615,6.362,1.845a6.572,6.572,0,0,1,2.258,4.92l-4.515.2a4.011,4.011,0,0,0-1.232-2.46,4.366,4.366,0,0,0-2.873-.82,5.24,5.24,0,0,0-3.078.82,1.551,1.551,0,0,0-.718,1.435,1.494,1.494,0,0,0,.718,1.333,11.218,11.218,0,0,0,4.207,1.538,19.409,19.409,0,0,1,4.925,1.64,6.517,6.517,0,0,1,2.463,2.255,6.421,6.421,0,0,1,.924,3.588,6.347,6.347,0,0,1-1.027,3.587,6.138,6.138,0,0,1-3.078,2.46,13.719,13.719,0,0,1-4.925.82c-2.873,0-5.028-.615-6.567-1.947A8.512,8.512,0,0,1,338,351.478Z" fill="#fff"/><path d="M360.062,358.859V336.307h16.623V340.1H364.576v5.023h11.288v3.792H364.576v6.151H377.1v3.793Z" fill="#fff"/><path d="M381.1,358.859V336.307h9.543a16.438,16.438,0,0,1,5.233.615,4.818,4.818,0,0,1,2.565,2.153,6.98,6.98,0,0,1,1.026,3.588,6.067,6.067,0,0,1-1.539,4.2,7.135,7.135,0,0,1-4.412,2.05,16.984,16.984,0,0,1,2.462,1.846,26.2,26.2,0,0,1,2.566,3.69l2.77,4.408h-5.438l-3.284-4.921a25.773,25.773,0,0,0-2.36-3.28,5.2,5.2,0,0,0-1.334-.923,6.7,6.7,0,0,0-2.257-.2h-.924v9.329Zm4.515-13.019H389a16.392,16.392,0,0,0,4.1-.307,2.412,2.412,0,0,0,1.642-2.563,2.635,2.635,0,0,0-2.36-2.768c-.41,0-1.437-.1-3.284-.1h-3.591Z" fill="#fff"/><path d="M403.672,336.307h4.515v12.2a25.671,25.671,0,0,0,.2,3.793,3.606,3.606,0,0,0,1.437,2.255,5.113,5.113,0,0,0,2.975.82,4.36,4.36,0,0,0,2.873-.82,3.552,3.552,0,0,0,1.232-1.947,29.4,29.4,0,0,0,.205-3.793V336.307h4.515V348.1a25.611,25.611,0,0,1-.41,5.741,6.763,6.763,0,0,1-1.334,2.87,7.677,7.677,0,0,1-2.668,1.845,10.514,10.514,0,0,1-4.31.718,12.465,12.465,0,0,1-4.925-.718,7.491,7.491,0,0,1-2.668-1.948,6.934,6.934,0,0,1-1.232-2.46,27.338,27.338,0,0,1-.41-5.74Z" fill="#fff"/><path d="M426.349,358.859V336.307h6.772l4.1,15.274,4-15.274H448v22.449h-4.207V341.125l-4.413,17.734h-4.412l-4.412-17.734v17.734Z" fill="#fff"/><path d="M258.623,332,266,339.377,257.377,348,266,356.623,258.623,364,250,355.377,241.377,364,234,356.623,242.623,348,234,339.377,241.377,332,250,340.623Zm0,2.345L250,342.968l-8.623-8.623-5.032,5.032L244.968,348l-8.623,8.623,5.032,5.032L250,353.032l8.623,8.623,5.032-5.032L255.032,348l8.623-8.623Z" transform="translate(55)" fill="#fff" fill-rule="evenodd"/><path d="M72.636,350.909h8.076a2.067,2.067,0,0,1,0,4.133H70.971a.638.638,0,0,0-.415.154l-2.941,2.532a.643.643,0,0,0,.415,1.13H80.225a.009.009,0,0,0,.009-.009.01.01,0,0,1,.01-.01c.153.012.309.019.465.019a5.884,5.884,0,0,0,.484-11.745.009.009,0,0,1-.009-.01.009.009,0,0,0-.01-.009h-8.7a2.067,2.067,0,0,1,0-4.134H82.2a.632.632,0,0,0,.432-.17l2.731-2.531a.643.643,0,0,0-.432-1.114h-12.3s0,0,0,0h0c-.052,0-.1,0-.157,0a5.882,5.882,0,0,0,0,11.764l.157,0h0Z" transform="translate(56)" fill="#fff"/><path d="M119.675,339.145a.641.641,0,0,0-.64.642v18.429a.642.642,0,0,0,.64.642h14.788a.637.637,0,0,0,.466-.2l1.851-1.982a.642.642,0,0,0-.466-1.081H123.4a.641.641,0,0,1-.639-.642V339.787a.64.64,0,0,0-.64-.642Z" transform="translate(56)" fill="#fff"/><path d="M95.989,339.145a0,0,0,0,0,0,0h0a3.656,3.656,0,0,0-3.49,3.493h0v12.4s0,0,0,0a0,0,0,0,1,0,0c0,.052,0,.1,0,.157a3.655,3.655,0,0,0,3.493,3.653,0,0,0,0,1,0,0h13.421s0,0,0,0h0A3.655,3.655,0,0,0,112.9,355.2c0-.052,0-.1,0-.157,0,0,0,0,0,0s0,0,0,0v-12.4a0,0,0,0,0,0,0,0,0,0,0,1,0,0,3.656,3.656,0,0,0-3.49-3.493h0s0,0,0,0Zm2.5,3.5h0s0,0,0,0a2.293,2.293,0,0,0-2.181,2.2s0,0,0,0h0v7.8s0,0,0,0h0q0,.049,0,.1a2.293,2.293,0,0,0,2.183,2.3h8.42a2.293,2.293,0,0,0,2.184-2.3c0-.033,0-.066,0-.1h0a0,0,0,0,0,0,0v-7.8h0s0,0,0,0a2.292,2.292,0,0,0-2.181-2.2,0,0,0,0,1,0,0H98.49Z" transform="translate(56)" fill="#fff" fill-rule="evenodd"/><path d="M158.284,358.216a.638.638,0,0,0,.634.642h2.509a.638.638,0,0,0,.634-.642V342.962a0,0,0,0,0,0,0h0s0,0,0,0c0-.052,0-.1,0-.157a3.64,3.64,0,0,0-3.46-3.653h0a0,0,0,0,0,0,0H145.713s0,0,0,0q-.078,0-.156,0a3.638,3.638,0,0,0-3.619,3.656c0,.053,0,.105,0,.157a0,0,0,0,1,0,0,0,0,0,0,0,0,0v15.254a.638.638,0,0,0,.634.642h2.508a.638.638,0,0,0,.634-.642v-6.347a.638.638,0,0,1,.634-.642h11.3a.637.637,0,0,1,.634.642Zm-12.571-10.492V344.55a2.215,2.215,0,0,1,2.2-2.226h8.166a2.214,2.214,0,0,1,2.2,2.226v3.174a.637.637,0,0,1-.634.641h-11.3A.638.638,0,0,1,145.713,347.724Z" transform="translate(56)" fill="#fff" fill-rule="evenodd"/><path d="M211.226,358.858a.641.641,0,0,1-.64-.642v-6.347a.641.641,0,0,0-.64-.642H198.518a.64.64,0,0,0-.64.642v6.347a.642.642,0,0,1-.641.642h-2.532a.642.642,0,0,1-.64-.642V342.962h0s0,0,0,0c0-.052,0-.1,0-.157a3.655,3.655,0,0,1,3.654-3.656c.052,0,.105,0,.157,0a0,0,0,0,0,0,0,0,0,0,0,1,0,0H210.9s0,0,0,0h0A3.656,3.656,0,0,1,214.4,342.8c0,.053,0,.105,0,.157a0,0,0,0,0,0,0h0v15.254a.641.641,0,0,1-.64.642ZM197.878,344.55v3.174a.64.64,0,0,0,.64.641h11.428a.641.641,0,0,0,.64-.641V344.55a2.225,2.225,0,0,0-2.224-2.226H200.1A2.225,2.225,0,0,0,197.878,344.55Z" transform="translate(56)" fill="#fff" fill-rule="evenodd"/><path d="M171.5,339.145a.628.628,0,0,1,.482.225l11.249,13.391a.633.633,0,0,0,1.116-.417V339.787a.638.638,0,0,1,.634-.642h2.508a.638.638,0,0,1,.634.642v18.429a.638.638,0,0,1-.634.642h-3.118a.024.024,0,0,1-.024-.024.023.023,0,0,0-.006-.016l-11.437-13.3a.633.633,0,0,0-1.112.422v12.273a.638.638,0,0,1-.634.642h-2.524a.638.638,0,0,1-.634-.642V339.787a.638.638,0,0,1,.634-.642Z" transform="translate(56)" fill="#fff"/><path d="M5.725,267.6h20.1V254.611h5.725v31.8H25.829V273.413H5.725v12.993H0v-31.8H5.725Z" transform="translate(122.62 37.15)" fill="#fff"/><path d="M83.449,286.407H77.724v-7.8H57.6v7.8H51.873v-15.9a16.871,16.871,0,0,1,1.189-6.408,14.767,14.767,0,0,1,8.3-8.315,16.531,16.531,0,0,1,6.3-1.175h12.9a2.867,2.867,0,0,1,1.123.222,2.845,2.845,0,0,1,1.541,1.552,2.926,2.926,0,0,1,.22,1.131ZM57.6,272.837H77.724V260.376H67.661q-.264,0-1.123.089a10.68,10.68,0,0,0-1.96.377,12.339,12.339,0,0,0-2.334.954,8.241,8.241,0,0,0-2.268,1.774,9.23,9.23,0,0,0-1.717,2.838,11.268,11.268,0,0,0-.661,4.1Z" transform="translate(108.422 37.15)" fill="#fff"/><path d="M132.65,286.407H112a9.148,9.148,0,0,1-1.718-.177,9.6,9.6,0,0,1-1.806-.6,8.793,8.793,0,0,1-1.7-1.02,7.578,7.578,0,0,1-1.453-1.53,8.009,8.009,0,0,1-.991-2.084,8.96,8.96,0,0,1-.375-2.683V262.7a8.979,8.979,0,0,1,.176-1.708,9.11,9.11,0,0,1,.594-1.818,8.049,8.049,0,0,1,1.035-1.73,7.086,7.086,0,0,1,1.519-1.441,7.538,7.538,0,0,1,2.07-1.02,8.58,8.58,0,0,1,2.642-.377H132.65v5.765H112a2.318,2.318,0,0,0-1.718.6,2.42,2.42,0,0,0-.594,1.774v15.565a2.4,2.4,0,0,0,.594,1.73,2.365,2.365,0,0,0,1.718.6H132.65Z" transform="translate(94.166 37.15)" fill="#fff"/><path d="M184.032,286.407h-8.125l-12.882-12.993H151.353V267.6h11.672l12.882-12.993h8.125l-16.228,15.9Zm-27.326,0h-5.725v-31.8h5.725Z" transform="translate(81.296 37.15)" fill="#fff"/><path d="M232.186,286.407h-5.725v-7.8H206.335v7.8H200.61v-15.9A16.877,16.877,0,0,1,201.8,264.1a14.769,14.769,0,0,1,8.3-8.315,16.532,16.532,0,0,1,6.3-1.175h12.9a2.868,2.868,0,0,1,1.123.222,2.846,2.846,0,0,1,1.541,1.552,2.927,2.927,0,0,1,.22,1.131Zm-25.85-13.569h20.126V260.376H216.4q-.265,0-1.123.089a10.676,10.676,0,0,0-1.96.377,12.329,12.329,0,0,0-2.334.954,8.24,8.24,0,0,0-2.268,1.774A9.236,9.236,0,0,0,207,266.407a11.275,11.275,0,0,0-.66,4.1Z" transform="translate(67.712 37.15)" fill="#fff"/><path d="M280.888,260.376H268.27v26.031h-5.725V260.376H249.906v-5.765h30.982Z" transform="translate(54.219 37.15)" fill="#fff"/><path d="M304.169,267.6h20.1V254.611H330v31.8h-5.725V273.413h-20.1v12.993h-5.725v-31.8h5.725Z" transform="translate(40.934 37.15)" fill="#fff"/><path d="M383.9,273.379a14.06,14.06,0,0,1-.991,5.344,12.429,12.429,0,0,1-6.936,6.985,13.793,13.793,0,0,1-5.24.975h-7.751a13.966,13.966,0,0,1-5.263-.975,12.576,12.576,0,0,1-4.183-2.772,12.967,12.967,0,0,1-2.774-4.213,14.061,14.061,0,0,1-.991-5.344V267.3a14,14,0,0,1,.991-5.322A12.559,12.559,0,0,1,357.721,255a13.684,13.684,0,0,1,5.263-1h7.751a13.515,13.515,0,0,1,5.24,1,12.571,12.571,0,0,1,4.184,2.772,12.368,12.368,0,0,1,2.752,4.213,14,14,0,0,1,.991,5.322Zm-5.725-6.075a8.231,8.231,0,0,0-.551-3.082,6.511,6.511,0,0,0-1.519-2.373,6.445,6.445,0,0,0-2.356-1.53,7.943,7.943,0,0,0-3.016-.554h-7.751a8.174,8.174,0,0,0-3.061.554,6.779,6.779,0,0,0-3.9,3.9,8.534,8.534,0,0,0-.529,3.082v6.075a8.718,8.718,0,0,0,.529,3.1,7.043,7.043,0,0,0,1.541,2.372,7.151,7.151,0,0,0,2.356,1.53,8.487,8.487,0,0,0,3.061.532h7.707a8.312,8.312,0,0,0,3.039-.532,7.093,7.093,0,0,0,2.378-1.53,6.768,6.768,0,0,0,1.519-2.372,8.408,8.408,0,0,0,.551-3.1Z" transform="translate(26.886 37.317)" fill="#fff"/><path d="M436.109,283.781a2.75,2.75,0,0,1-.242,1.153,2.87,2.87,0,0,1-.617.931,2.77,2.77,0,0,1-.9.6,2.882,2.882,0,0,1-1.124.222,3.154,3.154,0,0,1-1.079-.2,2.516,2.516,0,0,1-.947-.643l-20.918-22v22.395h-5.725V256.906a2.771,2.771,0,0,1,.484-1.6,3.129,3.129,0,0,1,1.278-1.087,2.823,2.823,0,0,1,1.673-.155,2.647,2.647,0,0,1,1.475.8l20.918,21.973V254.446h5.725Z" transform="translate(11.891 37.315)" fill="#fff"/></g></svg>