<svg xmlns="http://www.w3.org/2000/svg" width="40" height="40" viewBox="0 0 40 40">
    <g fill="none" fill-rule="evenodd">
        <path d="M10.038 10.038h19.868v19.868H10.038z"/>
        <path fill="#323232" d="M29.523 27.645l-7.703-7.806 7.441-7.54c.51-.518.51-1.356 0-1.873a1.295 1.295 0 0 0-1.848 0l-7.442 7.54-7.44-7.54a1.295 1.295 0 0 0-1.85 0 1.337 1.337 0 0 0 0 1.872l7.442 7.541-7.703 7.806a1.337 1.337 0 0 0 0 1.873 1.294 1.294 0 0 0 1.849 0l7.702-7.806 7.703 7.806a1.294 1.294 0 0 0 1.849 0c.51-.518.51-1.356 0-1.873"/>
    </g>
</svg>
