<?xml version="1.0" standalone="no"?>
<!DOCTYPE svg PUBLIC "-//W3C//DTD SVG 20010904//EN"
 "http://www.w3.org/TR/2001/REC-SVG-20010904/DTD/svg10.dtd">
<svg version="1.0" xmlns="http://www.w3.org/2000/svg"
 width="512.000000pt" height="512.000000pt" viewBox="0 0 512.000000 512.000000"
 preserveAspectRatio="xMidYMid meet">
<metadata>
Created by potrace 1.16, written by Peter Selinger 2001-2019
</metadata>
<g transform="translate(0.000000,512.000000) scale(0.100000,-0.100000)"
fill="#000000" stroke="none">
<path d="M0 2560 l0 -2560 2560 0 2560 0 0 2560 0 2560 -2560 0 -2560 0 0
-2560z m1628 1357 c12 -12 35 -56 52 -97 68 -165 166 -280 238 -280 11 0 57
25 103 56 190 128 355 184 540 184 177 0 323 -48 513 -170 61 -38 118 -70 128
-70 71 0 181 133 239 288 30 79 60 112 104 112 45 0 85 -48 124 -149 44 -115
62 -201 66 -313 2 -54 6 -102 10 -108 14 -23 54 -7 125 51 166 133 206 150
294 125 63 -19 146 -88 179 -150 19 -35 22 -55 20 -135 -3 -113 -12 -102 204
-249 163 -111 180 -131 170 -201 -6 -49 -73 -184 -133 -268 -118 -165 -294
-290 -485 -343 -104 -28 -151 -26 -214 10 -71 41 -79 33 -115 -115 -16 -66
-36 -140 -44 -164 -27 -74 -22 -98 32 -150 26 -25 71 -65 100 -89 122 -101
124 -215 7 -374 -49 -66 -112 -101 -184 -101 -49 0 -70 7 -166 57 -123 65
-120 65 -248 16 -212 -82 -450 -114 -792 -107 -295 6 -423 26 -642 99 l-153
52 -115 -59 c-97 -49 -123 -58 -167 -58 -96 0 -170 57 -236 181 -76 142 -49
210 146 370 28 24 55 54 58 68 4 16 -4 59 -20 112 -14 48 -35 129 -47 180 -26
117 -40 127 -107 82 -43 -29 -52 -31 -112 -27 -150 10 -350 109 -480 237 -170
167 -279 399 -225 477 8 12 86 70 174 129 88 60 166 119 175 135 13 22 15 42
10 92 -9 86 13 152 71 211 78 81 174 110 254 76 18 -7 81 -51 139 -97 79 -62
114 -83 132 -81 25 3 25 5 32 123 10 176 74 373 140 435 30 27 79 26 106 -3z"/>
<path d="M1541 3743 c-45 -56 -75 -231 -60 -341 17 -120 86 -236 183 -308 28
-21 63 -49 79 -63 42 -39 33 -101 -16 -101 -28 0 -18 -7 -490 373 -87 70 -169
132 -183 137 -42 16 -79 11 -119 -16 -80 -54 -104 -111 -80 -190 23 -77 20
-106 -17 -141 -18 -16 -101 -76 -184 -131 -175 -117 -186 -132 -160 -208 46
-134 201 -315 341 -398 82 -47 214 -96 263 -96 15 0 41 9 59 19 35 22 131 143
139 177 3 12 -6 56 -20 97 -45 130 -28 230 37 213 29 -7 136 -90 180 -139 41
-47 36 -71 -32 -142 -50 -52 -60 -69 -66 -110 -16 -101 13 -273 75 -450 16
-49 30 -98 30 -109 0 -33 -24 -60 -131 -146 -101 -83 -129 -118 -129 -166 0
-40 37 -111 85 -161 38 -39 46 -43 91 -43 37 0 65 9 114 36 36 20 85 47 109
60 24 13 53 24 65 24 12 0 63 -18 115 -40 193 -84 430 -123 741 -124 314 0
548 39 749 125 68 29 103 39 124 35 16 -3 72 -31 125 -61 80 -45 105 -55 144
-55 39 0 54 6 83 32 53 46 95 124 95 177 0 39 -5 49 -47 90 -27 25 -82 74
-125 108 -98 79 -100 88 -53 224 65 189 93 399 64 476 -5 15 -35 53 -65 84
-68 72 -69 94 -13 149 61 59 158 130 178 130 56 0 66 -91 26 -218 -14 -44 -22
-88 -19 -98 14 -39 115 -161 148 -179 31 -17 42 -18 90 -8 69 15 161 51 234
94 89 53 228 199 285 299 55 98 66 143 46 178 -8 14 -90 77 -184 141 -93 64
-176 128 -184 142 -13 24 -13 35 4 101 l18 75 -23 48 c-40 83 -135 126 -201
91 -15 -7 -164 -125 -333 -260 -320 -257 -341 -270 -370 -224 -19 32 6 70 86
130 83 63 152 154 183 243 35 99 20 294 -31 400 -32 69 -61 54 -126 -64 -74
-135 -217 -254 -285 -236 -14 3 -66 35 -117 72 -172 124 -301 173 -471 180
-90 4 -127 1 -200 -16 -109 -26 -245 -92 -340 -164 -39 -30 -81 -59 -94 -66
-75 -41 -225 78 -321 254 -31 57 -55 85 -71 85 -4 0 -17 -12 -28 -27z m1092
-192 c43 -17 74 -61 112 -160 71 -184 77 -293 19 -320 -40 -18 -394 -15 -420
4 -42 28 -38 115 12 265 38 117 74 180 114 201 38 21 122 25 163 10z m-368
-120 c3 -11 -5 -62 -19 -113 -14 -51 -30 -124 -37 -163 -15 -94 -30 -119 -79
-139 -111 -44 -184 8 -182 130 2 78 68 172 183 258 69 52 122 62 134 27z m712
-21 c104 -69 180 -164 197 -247 17 -77 -39 -163 -106 -163 -46 0 -96 20 -121
47 -10 12 -25 63 -37 129 -11 61 -26 130 -35 153 -16 45 -20 103 -8 114 15 16
55 4 110 -33z m-1246 -69 c63 -61 70 -72 67 -101 -7 -74 -72 -64 -130 19 -53
75 -64 151 -23 151 9 0 48 -31 86 -69z m1769 36 c0 -43 -44 -130 -82 -162 -35
-30 -73 -32 -88 -6 -22 42 -12 64 63 133 82 77 107 85 107 35z m-2343 -154
c233 -188 313 -275 298 -323 -15 -48 -55 -33 -175 71 -245 210 -279 249 -250
284 23 28 66 17 127 -32z m2931 35 c18 -18 15 -42 -9 -73 -31 -39 -330 -296
-356 -306 -50 -19 -74 19 -48 75 16 32 118 128 283 264 64 53 105 65 130 40z
m-3076 -259 c41 -30 88 -97 88 -126 0 -16 -13 -36 -35 -56 -24 -21 -35 -39
-35 -59 0 -30 34 -108 95 -217 43 -78 44 -104 6 -142 -39 -39 -88 -38 -189 1
-138 54 -262 165 -318 285 -29 62 -30 89 -3 116 15 15 28 19 47 15 103 -23
112 -20 112 41 0 51 20 82 79 124 63 45 107 50 153 18z m3240 -10 c65 -42 88
-73 88 -120 0 -72 14 -81 91 -58 32 10 42 9 64 -5 34 -22 32 -58 -7 -137 -93
-187 -391 -357 -491 -279 -48 38 -44 61 29 205 36 73 67 144 67 159 0 19 -12
39 -37 63 -43 42 -45 67 -11 114 69 94 125 110 207 58z m-1633 -174 c40 -20
73 -109 73 -193 0 -27 -7 -42 -27 -59 -22 -20 -37 -23 -104 -23 -100 0 -131
20 -131 83 0 43 12 99 32 150 20 52 98 73 157 42z m-498 -180 c27 -29 58 -50
90 -60 41 -14 49 -21 49 -41 0 -17 -10 -29 -40 -44 -47 -24 -71 -25 -110 -5
-62 32 -98 135 -61 178 19 24 25 22 72 -28z m962 12 c14 -43 -1 -97 -37 -133
-54 -54 -109 -57 -163 -10 -35 31 -25 54 33 73 22 7 60 34 84 58 50 51 69 53
83 12z m-1131 -81 c11 -47 31 -89 64 -137 46 -68 48 -72 52 -157 2 -48 7 -91
11 -95 15 -16 41 6 56 49 8 24 22 64 31 90 9 25 32 60 51 79 60 58 98 65 353
65 224 0 227 0 278 -26 63 -31 95 -75 123 -166 22 -72 52 -109 71 -90 6 6 12
49 13 96 2 84 2 85 53 161 28 42 54 92 57 113 11 64 21 87 40 91 32 6 45 -27
45 -112 0 -43 5 -87 10 -98 15 -27 48 -24 95 8 52 36 97 35 158 -1 75 -43 89
-74 84 -176 -6 -93 -26 -162 -59 -197 -25 -27 -52 -29 -101 -8 -47 19 -86 19
-94 -1 -3 -9 23 -72 62 -149 48 -94 69 -148 73 -183 4 -47 3 -50 -37 -84 -52
-44 -187 -99 -263 -105 l-56 -6 -56 53 c-72 68 -90 65 -131 -22 -40 -83 -63
-98 -171 -110 -109 -12 -448 -4 -489 12 -46 17 -73 48 -91 102 -15 45 -36 68
-64 68 -6 0 -34 -23 -62 -50 -44 -44 -55 -50 -92 -50 -84 0 -265 76 -306 127
-34 43 -23 92 55 247 41 80 66 140 62 150 -8 20 -47 21 -94 1 -49 -21 -76 -19
-101 8 -42 45 -73 190 -58 271 8 43 56 93 114 118 50 22 77 19 131 -18 40 -27
73 -31 90 -10 6 7 14 49 17 92 8 116 11 126 37 122 18 -2 25 -15 39 -72z
m-478 -987 c50 -40 25 -119 -38 -119 -37 0 -49 7 -65 38 -15 29 -7 56 26 82
32 25 44 25 77 -1z m2239 10 c25 -11 47 -47 47 -74 0 -24 -38 -55 -68 -55 -39
0 -72 26 -72 56 0 43 21 69 67 83 1 1 13 -4 26 -10z"/>
<path d="M2461 2339 c-61 -12 -90 -34 -113 -86 -27 -61 -31 -185 -6 -209 18
-18 22 -17 88 22 19 11 52 14 140 12 103 -3 119 -6 149 -27 25 -18 38 -22 50
-14 28 17 36 75 21 155 -10 58 -19 79 -44 104 -48 48 -167 66 -285 43z m154
-83 c35 -15 55 -42 55 -75 0 -60 -145 -87 -195 -36 -40 39 -28 86 28 110 41
18 70 18 112 1z"/>
</g>
</svg>
