<svg xmlns="http://www.w3.org/2000/svg" width="122.18" height="17.09" viewBox="0 0 122.18 17.09"><path d="M6.205.137,1.642-11.885H-.039v-1.7H5.322v1.7H3.753L7.212-2.764l3.367-9.121H8.994v-1.7h5.215v1.7H12.56L8.09.137ZM25.058-4.775H20.164L19.125-1.7h1.65V0H15.424V-1.7h1.644l3.709-10.352H19.135v-1.533h6.943v1.533h-1.7L28.182-1.7H29.7V0H24.379V-1.7h1.689Zm-.512-1.592-1.808-5.684h-.186L20.671-6.367ZM33.006-1.7V-11.885H31.248v-1.7H36.8v1.7h-1.67V-1.7H39.3V-6.318h1.914V0H31.248V-1.7ZM43.42-5.615H49.28V-3.76H43.42ZM53.385-1.7V-11.885H51.842v-1.7h5.2v1.7h-1.6V-8h5.908v-3.887H59.752v-1.7h5.2v1.7H63.395V-1.7h1.553V0h-5.2V-1.7h1.592V-6.3H55.436v4.6h1.6V0h-5.2V-1.7Zm14.5-5.156a6.829,6.829,0,0,1,1.934-4.951A6.708,6.708,0,0,1,74.854-13.8a6.874,6.874,0,0,1,5.107,1.992,6.8,6.8,0,0,1,1.973,4.99,6.8,6.8,0,0,1-2.007,5.044,6.949,6.949,0,0,1-5.1,1.987A7.206,7.206,0,0,1,71.2-.728a6.032,6.032,0,0,1-2.485-2.627A7.828,7.828,0,0,1,67.881-6.855Zm2.236.01A5.532,5.532,0,0,0,71.426-3.1a4.324,4.324,0,0,0,3.438,1.514A4.405,4.405,0,0,0,78.33-3.13a5.418,5.418,0,0,0,1.357-3.7,5.211,5.211,0,0,0-1.382-3.667,4.522,4.522,0,0,0-3.472-1.5,4.35,4.35,0,0,0-3.4,1.475A5.306,5.306,0,0,0,70.118-6.846Zm1.943-8.945a1.049,1.049,0,0,1,.317-.762,1.037,1.037,0,0,1,.767-.322,1.045,1.045,0,0,1,.767.317,1.045,1.045,0,0,1,.317.767,1.04,1.04,0,0,1-.317.771,1.053,1.053,0,0,1-.767.313,1.049,1.049,0,0,1-.762-.317A1.037,1.037,0,0,1,72.061-15.791Zm3.535,0a1.072,1.072,0,0,1,.308-.757,1.02,1.02,0,0,1,.776-.327,1.037,1.037,0,0,1,.767.322,1.049,1.049,0,0,1,.317.762,1.045,1.045,0,0,1-.317.767,1.044,1.044,0,0,1-.767.317,1.04,1.04,0,0,1-.771-.317A1.053,1.053,0,0,1,75.6-15.791ZM86.381-1.7V-11.885H84.624v-1.7H90.18v1.7H88.51V-1.7h4.16V-6.318h1.914V0H84.624V-1.7Zm11.84,0V-11.885H96.463v-1.7h5.557v1.7h-1.67V-1.7h4.16V-6.318h1.914V0H96.463V-1.7ZM117.5-4.775H112.6L111.565-1.7h1.65V0h-5.352V-1.7h1.644l3.709-10.352h-1.642v-1.533h6.943v1.533h-1.7l3.8,10.352h1.52V0h-5.322V-1.7h1.689Zm-.512-1.592-1.808-5.684h-.186l-1.882,5.684Z" transform="translate(0.039 16.875)" fill="#fff"/></svg>