<?xml version="1.0" standalone="no"?>
<!DOCTYPE svg PUBLIC "-//W3C//DTD SVG 20010904//EN"
 "http://www.w3.org/TR/2001/REC-SVG-20010904/DTD/svg10.dtd">
 <svg version="1.0" xmlns="http://www.w3.org/2000/svg" class="img-fluid" width="521" height="421" viewBox="0 0 521 391" fill="none"><path d="M306.319 360.881C299.326 360.881 293.655 355.217 293.655 348.23C293.655 341.433 305.09 329.443 305.563 328.971L306.13 328.311L306.697 328.971C307.169 329.443 318.888 341.433 318.888 348.23C318.983 355.217 313.312 360.881 306.319 360.881ZM306.224 330.765C305.185 331.898 303.106 334.164 301.027 336.996C297.341 341.905 295.356 345.776 295.356 348.23C295.356 354.273 300.271 359.182 306.319 359.182C312.367 359.182 317.281 354.273 317.281 348.23C317.281 345.776 315.297 341.905 311.517 336.996C309.438 334.258 307.264 331.898 306.224 330.765Z" fill="url(#paint0_linear)"></path><path d="M306.318 364.94C297.057 364.94 289.591 357.482 289.591 348.23C289.591 339.262 302.16 326.705 302.727 326.139C303.105 325.856 303.577 325.856 303.956 326.139C304.239 326.517 304.239 326.989 303.956 327.366C303.766 327.461 291.292 339.922 291.292 348.23C291.292 356.538 298.002 363.241 306.318 363.241C314.635 363.241 321.344 356.538 321.344 348.23C321.344 344.832 319.171 340.111 315.013 334.636C311.799 330.387 308.586 327.177 308.586 327.177C308.208 326.894 308.208 326.328 308.586 325.95C308.87 325.572 309.437 325.572 309.815 325.95C310.382 326.517 323.14 339.262 323.14 348.23C323.045 357.482 315.58 364.94 306.318 364.94Z" fill="url(#paint1_linear)"></path><path d="M306.319 369C295.167 369 286 359.842 286 348.702C286 344.076 288.363 338.412 292.899 331.803C296.301 326.989 299.609 323.496 299.798 323.307C300.081 322.929 300.648 322.929 301.026 323.307C301.404 323.59 301.404 324.156 301.026 324.534C301.026 324.534 297.624 328.027 294.316 332.842C289.969 339.073 287.701 344.548 287.701 348.797C287.701 359.087 296.112 367.395 306.319 367.395C316.525 367.395 324.936 358.898 324.936 348.702C324.936 344.454 322.668 338.978 318.321 332.748C315.013 328.027 311.611 324.534 311.611 324.44C311.327 324.062 311.327 323.59 311.611 323.212C311.989 322.929 312.461 322.929 312.839 323.212C313.312 323.873 326.637 337.657 326.637 348.702C326.637 359.842 317.565 369 306.319 369Z" fill="url(#paint2_linear)"></path><path d="M338 351.478L342.412 351.068C342.72 352.504 343.233 353.631 344.054 354.349C344.875 355.066 346.004 355.374 347.338 355.374C348.774 355.374 349.903 355.066 350.621 354.451C351.34 353.836 351.75 353.119 351.75 352.299C351.75 351.786 351.545 351.273 351.237 350.966C350.929 350.556 350.416 350.248 349.595 350.043C349.082 349.838 347.851 349.531 346.004 349.018C343.541 348.403 341.899 347.686 340.873 346.763C339.539 345.533 338.821 343.995 338.821 342.253C338.821 341.125 339.129 339.998 339.744 339.075C340.36 338.153 341.284 337.333 342.515 336.82C343.746 336.308 345.183 336 346.927 336C349.8 336 351.853 336.615 353.289 337.845C354.726 339.075 355.444 340.715 355.547 342.765L351.032 342.97C350.827 341.843 350.416 341.023 349.8 340.51C349.185 339.998 348.261 339.69 346.927 339.69C345.593 339.69 344.567 339.998 343.849 340.51C343.336 340.818 343.131 341.33 343.131 341.945C343.131 342.458 343.336 342.97 343.849 343.278C344.465 343.79 345.799 344.303 348.056 344.816C350.313 345.328 351.853 345.841 352.981 346.456C354.007 346.968 354.828 347.788 355.444 348.711C356.06 349.633 356.368 350.863 356.368 352.299C356.368 353.631 356.06 354.759 355.341 355.886C354.623 357.014 353.597 357.834 352.263 358.346C350.929 358.859 349.287 359.166 347.338 359.166C344.465 359.166 342.31 358.551 340.771 357.219C339.231 355.886 338.308 354.041 338 351.478Z" fill="white"></path><path d="M360.062 358.859V336.307H376.685V340.1H364.576V345.123H375.864V348.915H364.576V355.066H377.095V358.859H360.062Z" fill="white"></path><path d="M381.097 358.859V336.307H390.64C393 336.307 394.744 336.512 395.873 336.922C397.002 337.332 397.822 338.05 398.438 339.075C399.054 340.1 399.464 341.33 399.464 342.663C399.464 344.303 398.951 345.738 397.925 346.865C396.899 347.993 395.462 348.608 393.513 348.915C394.539 349.53 395.257 350.145 395.975 350.761C396.591 351.478 397.515 352.708 398.541 354.451L401.311 358.859H395.873L392.589 353.938C391.46 352.196 390.64 351.068 390.229 350.658C389.819 350.248 389.306 349.94 388.895 349.735C388.382 349.53 387.664 349.53 386.638 349.53H385.714V358.859H381.097V358.859ZM385.612 345.84H388.998C391.153 345.84 392.487 345.738 393.102 345.533C393.615 345.328 394.026 345.02 394.334 344.61C394.641 344.2 394.744 343.585 394.744 342.97C394.744 342.253 394.539 341.637 394.128 341.125C393.718 340.612 393.205 340.407 392.384 340.202C391.974 340.202 390.947 340.1 389.1 340.1H385.509L385.612 345.84Z" fill="white"></path><path d="M403.672 336.307H408.187V348.505C408.187 350.453 408.289 351.683 408.392 352.298C408.597 353.221 409.008 353.938 409.829 354.553C410.547 355.066 411.573 355.373 412.804 355.373C414.138 355.373 415.062 355.066 415.677 354.553C416.293 354.041 416.704 353.426 416.909 352.606C417.011 351.888 417.114 350.556 417.114 348.813V336.307H421.629V348.095C421.629 350.761 421.526 352.708 421.219 353.836C421.013 354.963 420.5 355.886 419.885 356.706C419.269 357.423 418.345 358.039 417.217 358.551C416.088 359.064 414.651 359.269 412.907 359.269C410.752 359.269 409.11 359.064 407.982 358.551C406.853 358.039 406.032 357.423 405.314 356.603C404.698 355.783 404.288 354.963 404.082 354.143C403.774 352.811 403.672 350.966 403.672 348.403V336.307Z" fill="white"></path><path d="M426.349 358.859V336.307H433.121L437.225 351.581L441.227 336.307H448V358.756H443.793V341.125L439.38 358.859H434.968L430.556 341.125V358.859C430.556 358.859 426.349 358.859 426.349 358.859Z" fill="white"></path><path fill-rule="evenodd" clip-rule="evenodd" d="M258.623 332L266 339.377L257.377 348L266 356.623L258.623 364L250 355.377L241.377 364L234 356.623L242.623 348L234 339.377L241.377 332L250 340.623L258.623 332ZM258.623 334.345L250 342.968L241.377 334.345L236.345 339.377L244.968 348L236.345 356.623L241.377 361.655L250 353.032L258.623 361.655L263.655 356.623L255.032 348L263.655 339.377L258.623 334.345Z" fill="white"></path><path d="M72.6365 350.909H80.7127C81.8471 350.909 82.7667 351.834 82.7667 352.976C82.7667 354.117 81.8471 355.042 80.7127 355.042H70.9715C70.8195 355.042 70.6724 355.097 70.5569 355.196L67.6157 357.728C67.1654 358.116 67.4378 358.858 68.0304 358.858H80.2248C80.2298 358.858 80.2339 358.854 80.2339 358.849C80.2339 358.843 80.2384 358.839 80.2437 358.839C80.3971 358.851 80.5523 358.858 80.7088 358.858C83.9436 358.858 86.5659 356.224 86.5659 352.976C86.5659 349.891 84.2011 347.36 81.1928 347.113C81.1877 347.113 81.1837 347.109 81.1837 347.103C81.1837 347.098 81.1793 347.094 81.1738 347.094H72.4733C71.3389 347.094 70.4193 346.168 70.4193 345.027C70.4193 343.885 71.3389 342.96 72.4733 342.96H82.201C82.3612 342.96 82.5155 342.9 82.6333 342.79L85.3644 340.259C85.7916 339.863 85.5131 339.145 84.9321 339.145H72.6365C72.636 339.145 72.6355 339.145 72.6355 339.146C72.6355 339.146 72.635 339.147 72.6344 339.147C72.5822 339.145 72.5298 339.145 72.4772 339.145C69.2424 339.145 66.6201 341.778 66.6201 345.027C66.6201 348.275 69.2424 350.909 72.4772 350.909C72.5298 350.909 72.5822 350.908 72.6344 350.907C72.635 350.907 72.6355 350.907 72.6355 350.908C72.6355 350.908 72.636 350.909 72.6365 350.909Z" fill="white"></path><path d="M119.675 339.145C119.322 339.145 119.035 339.432 119.035 339.787V358.216C119.035 358.57 119.322 358.858 119.675 358.858H134.463C134.64 358.858 134.809 358.784 134.929 358.655L136.78 356.673C137.163 356.263 136.874 355.592 136.314 355.592H123.402C123.049 355.592 122.763 355.304 122.763 354.95V339.787C122.763 339.432 122.477 339.145 122.123 339.145H119.675Z" fill="white"></path><path fill-rule="evenodd" clip-rule="evenodd" d="M95.9889 339.145C95.9879 339.145 95.9872 339.146 95.9872 339.147C95.9872 339.147 95.9864 339.148 95.9855 339.148C94.0954 339.23 92.5776 340.749 92.4959 342.641C92.4958 342.641 92.4951 342.642 92.4941 342.642C92.4936 342.642 92.4932 342.642 92.4928 342.643C92.4926 342.643 92.4924 342.644 92.4924 342.644V355.041C92.4924 355.042 92.4932 355.042 92.4941 355.042C92.495 355.042 92.4958 355.043 92.4957 355.044C92.4935 355.096 92.4924 355.149 92.4924 355.201C92.4924 357.167 94.0421 358.77 95.9855 358.854C95.9864 358.854 95.9872 358.855 95.9872 358.856L95.9873 358.857L95.9878 358.857C95.9881 358.858 95.9885 358.858 95.9889 358.858H109.408C109.409 358.858 109.409 358.857 109.409 358.856L109.41 358.855L109.41 358.854L109.411 358.854C111.354 358.77 112.904 357.167 112.904 355.201C112.904 355.149 112.903 355.096 112.901 355.044C112.901 355.043 112.901 355.042 112.902 355.042C112.903 355.042 112.904 355.042 112.904 355.041V342.644C112.904 342.643 112.903 342.642 112.902 342.642C112.901 342.642 112.901 342.641 112.901 342.641C112.819 340.749 111.301 339.23 109.411 339.148C109.41 339.148 109.409 339.147 109.409 339.147C109.409 339.146 109.409 339.145 109.408 339.145H95.9889ZM98.4902 342.642L98.4893 342.643L98.4891 342.643C98.4891 342.644 98.4886 342.644 98.4881 342.644C97.3067 342.696 96.3581 343.651 96.307 344.841C96.307 344.842 96.3065 344.842 96.306 344.842C96.3054 344.842 96.3049 344.843 96.3049 344.843V352.641C96.3049 352.642 96.3053 352.642 96.3059 352.642C96.3065 352.642 96.307 352.643 96.307 352.643C96.3056 352.676 96.3049 352.709 96.3049 352.742C96.3049 353.979 97.2735 354.987 98.4881 355.04C98.4886 355.04 98.4891 355.041 98.4891 355.041L98.4893 355.042L98.4896 355.042L98.4902 355.042H106.906L106.907 355.042L106.907 355.042L106.907 355.041C106.907 355.041 106.908 355.04 106.908 355.04C108.123 354.987 109.092 353.979 109.092 352.742C109.092 352.709 109.091 352.676 109.09 352.643L109.09 352.643L109.09 352.643L109.091 352.642C109.091 352.642 109.092 352.642 109.092 352.641V344.843C109.092 344.843 109.091 344.842 109.091 344.842C109.09 344.842 109.089 344.842 109.089 344.841C109.038 343.651 108.09 342.696 106.908 342.644C106.908 342.644 106.907 342.644 106.907 342.643L106.907 342.643L106.907 342.642L106.906 342.642H98.4902Z" fill="white"></path><path fill-rule="evenodd" clip-rule="evenodd" d="M158.284 358.216C158.284 358.57 158.568 358.858 158.918 358.858H161.427C161.777 358.858 162.061 358.57 162.061 358.216V342.962C162.061 342.961 162.06 342.96 162.059 342.96L162.058 342.96L162.058 342.96C162.057 342.959 162.057 342.959 162.057 342.958C162.059 342.906 162.061 342.854 162.061 342.801C162.061 340.836 160.526 339.232 158.601 339.148C158.6 339.148 158.599 339.147 158.599 339.147C158.599 339.146 158.598 339.145 158.597 339.145H145.715C145.714 339.145 145.713 339.146 145.713 339.146C145.713 339.147 145.713 339.148 145.712 339.148C145.66 339.146 145.608 339.145 145.556 339.145C143.557 339.145 141.937 340.782 141.937 342.801C141.937 342.854 141.938 342.906 141.941 342.958C141.941 342.959 141.94 342.96 141.939 342.96C141.938 342.96 141.937 342.961 141.937 342.962V358.216C141.937 358.57 142.221 358.858 142.571 358.858H145.079C145.43 358.858 145.713 358.57 145.713 358.216V351.869C145.713 351.514 145.997 351.227 146.347 351.227H157.65C158.001 351.227 158.284 351.514 158.284 351.869V358.216ZM145.713 347.724V344.55C145.713 343.321 146.7 342.324 147.916 342.324H156.082C157.298 342.324 158.284 343.321 158.284 344.55V347.724C158.284 348.078 158.001 348.365 157.65 348.365H146.347C145.997 348.365 145.713 348.078 145.713 347.724Z" fill="white"></path><path fill-rule="evenodd" clip-rule="evenodd" d="M211.226 358.858C210.872 358.858 210.586 358.57 210.586 358.216V351.869C210.586 351.514 210.299 351.227 209.946 351.227H198.518C198.164 351.227 197.878 351.514 197.878 351.869V358.216C197.878 358.57 197.591 358.858 197.237 358.858H194.705C194.352 358.858 194.065 358.57 194.065 358.216V342.962L194.065 342.961L194.065 342.961C194.066 342.96 194.066 342.96 194.067 342.96C194.068 342.96 194.068 342.959 194.068 342.958C194.066 342.906 194.065 342.854 194.065 342.801C194.065 340.782 195.701 339.145 197.719 339.145C197.771 339.145 197.824 339.146 197.876 339.148C197.877 339.148 197.878 339.147 197.878 339.146C197.878 339.146 197.878 339.145 197.879 339.145L210.902 339.145C210.903 339.145 210.903 339.146 210.903 339.147C210.903 339.147 210.904 339.148 210.905 339.148C212.848 339.232 214.398 340.836 214.398 342.801C214.398 342.854 214.397 342.906 214.395 342.958C214.395 342.959 214.396 342.96 214.397 342.96C214.397 342.96 214.397 342.96 214.398 342.961C214.398 342.961 214.398 342.961 214.398 342.962V358.216C214.398 358.57 214.112 358.858 213.758 358.858H211.226ZM197.878 344.55V347.724C197.878 348.078 198.164 348.365 198.518 348.365H209.946C210.299 348.365 210.586 348.078 210.586 347.724V344.55C210.586 343.321 209.59 342.324 208.362 342.324H200.102C198.873 342.324 197.878 343.321 197.878 344.55Z" fill="white"></path><path d="M171.501 339.145C171.687 339.145 171.863 339.227 171.983 339.37L183.232 352.761C183.614 353.215 184.348 352.941 184.348 352.344V339.787C184.348 339.432 184.632 339.145 184.982 339.145H187.49C187.84 339.145 188.124 339.432 188.124 339.787V358.216C188.124 358.57 187.84 358.858 187.49 358.858H184.372C184.359 358.858 184.348 358.847 184.348 358.834C184.348 358.828 184.346 358.822 184.342 358.818L172.905 345.521C172.52 345.074 171.793 345.35 171.793 345.943V358.216C171.793 358.57 171.51 358.858 171.159 358.858H168.635C168.285 358.858 168.001 358.57 168.001 358.216V339.787C168.001 339.432 168.285 339.145 168.635 339.145H171.501Z" fill="white"></path><path d="M8.30639 359.535C8.61912 359.223 9.04313 359.048 9.48523 359.048H50.2763C51.0194 359.048 51.3914 359.945 50.8657 360.47L42.8055 368.513C42.4927 368.825 42.0687 369 41.6266 369H0.835574C0.0924873 369 -0.2795 368.103 0.246151 367.578L8.30639 359.535Z" fill="url(#paint3_linear)"></path><path d="M8.30639 329.487C8.61912 329.175 9.04313 329 9.48523 329H50.2763C51.0194 329 51.3914 329.897 50.8657 330.422L42.8055 338.465C42.4927 338.777 42.0687 338.952 41.6266 338.952H0.835574C0.0924873 338.952 -0.2795 338.055 0.246151 337.53L8.30639 329.487Z" fill="url(#paint4_linear)"></path><path d="M42.8055 344.416C42.4927 344.104 42.0687 343.928 41.6266 343.928H0.835573C0.0924871 343.928 -0.2795 344.826 0.24615 345.35L8.30639 353.393C8.61912 353.705 9.04313 353.88 9.48523 353.88H50.2763C51.0194 353.88 51.3914 352.983 50.8657 352.459L42.8055 344.416Z" fill="url(#paint5_linear)"></path><path d="M7.88252 272.501H35.5623V254.611H43.4448V298.389H35.5623V280.499H7.88252V298.389H0V254.611H7.88252V272.501Z" fill="white"></path><path d="M95.3482 298.389H87.4657V287.643H59.7556V298.389H51.873V276.5C51.873 273.305 52.4188 270.364 53.5102 267.677C54.6016 264.991 56.1175 262.68 58.0578 260.747C59.9981 258.813 62.2921 257.307 64.9398 256.229C67.5876 255.15 70.4778 254.611 73.6106 254.611H91.3766C91.9223 254.611 92.4377 254.712 92.9228 254.916C93.4079 255.119 93.8323 255.404 94.1961 255.771C94.5599 256.137 94.8429 256.564 95.045 257.053C95.2471 257.541 95.3482 258.06 95.3482 258.61V298.389ZM59.7556 279.706H87.4657V262.548H73.6106C73.3681 262.548 72.8527 262.589 72.0644 262.67C71.2964 262.731 70.397 262.904 69.3662 263.189C68.3556 263.474 67.2844 263.912 66.1525 264.502C65.0207 265.092 63.9798 265.906 63.0298 266.944C62.0799 267.982 61.2916 269.285 60.6651 270.852C60.0587 272.399 59.7556 274.282 59.7556 276.5V279.706Z" fill="white"></path><path d="M143.462 298.389H115.024C114.297 298.389 113.508 298.308 112.659 298.145C111.831 297.962 111.002 297.687 110.173 297.321C109.365 296.955 108.587 296.486 107.839 295.917C107.091 295.326 106.424 294.624 105.838 293.81C105.272 292.976 104.817 292.019 104.474 290.94C104.13 289.841 103.958 288.61 103.958 287.246V265.754C103.958 265.021 104.039 264.237 104.201 263.403C104.383 262.548 104.656 261.714 105.019 260.9C105.383 260.065 105.858 259.271 106.444 258.518C107.03 257.765 107.728 257.104 108.536 256.534C109.365 255.944 110.315 255.476 111.386 255.13C112.457 254.784 113.67 254.611 115.024 254.611H143.462V262.548H115.024C113.993 262.548 113.205 262.823 112.659 263.372C112.114 263.922 111.841 264.736 111.841 265.815V287.246C111.841 288.264 112.114 289.058 112.659 289.628C113.225 290.177 114.014 290.452 115.024 290.452H143.462V298.389Z" fill="white"></path><path d="M196.487 298.389H185.3L167.564 280.499H151.493V272.501H167.564L185.3 254.611H196.487L174.143 276.5L196.487 298.389ZM158.863 298.389H150.981V254.611H158.863V298.389Z" fill="white"></path><path d="M244.085 298.389H236.203V287.643H208.493V298.389H200.61V276.5C200.61 273.305 201.156 270.364 202.247 267.677C203.339 264.991 204.855 262.68 206.795 260.747C208.735 258.813 211.029 257.307 213.677 256.229C216.325 255.15 219.215 254.611 222.348 254.611H240.114C240.659 254.611 241.175 254.712 241.66 254.916C242.145 255.119 242.569 255.404 242.933 255.771C243.297 256.137 243.58 256.564 243.782 257.053C243.984 257.541 244.085 258.06 244.085 258.61V298.389ZM208.493 279.706H236.203V262.548H222.348C222.105 262.548 221.59 262.589 220.802 262.67C220.033 262.731 219.134 262.904 218.103 263.189C217.093 263.474 216.021 263.912 214.89 264.502C213.758 265.092 212.717 265.906 211.767 266.944C210.817 267.982 210.029 269.285 209.402 270.852C208.796 272.399 208.493 274.282 208.493 276.5V279.706Z" fill="white"></path><path d="M292.563 262.548H275.191V298.389H267.308V262.548H249.906V254.611H292.563V262.548Z" fill="white"></path><path d="M306.327 272.501H334.007V254.611H341.889V298.389H334.007V280.499H306.327V298.389H298.444V254.611H306.327V272.501Z" fill="white"></path><path d="M396.764 280.682C396.764 283.349 396.309 285.801 395.399 288.04C394.49 290.279 393.227 292.212 391.61 293.841C389.993 295.469 388.073 296.741 385.849 297.657C383.646 298.552 381.241 299 378.634 299H367.962C365.355 299 362.94 298.552 360.716 297.657C358.493 296.741 356.573 295.469 354.956 293.841C353.339 292.212 352.066 290.279 351.136 288.04C350.226 285.801 349.772 283.349 349.772 280.682V272.318C349.772 269.672 350.226 267.229 351.136 264.991C352.066 262.731 353.339 260.798 354.956 259.19C356.573 257.562 358.493 256.29 360.716 255.374C362.94 254.458 365.355 254 367.962 254H378.634C381.241 254 383.646 254.458 385.849 255.374C388.073 256.29 389.993 257.562 391.61 259.19C393.227 260.798 394.49 262.731 395.399 264.991C396.309 267.229 396.764 269.672 396.764 272.318V280.682ZM388.881 272.318C388.881 270.75 388.628 269.336 388.123 268.074C387.638 266.792 386.941 265.703 386.031 264.807C385.142 263.891 384.061 263.189 382.787 262.701C381.534 262.192 380.15 261.938 378.634 261.938H367.962C366.426 261.938 365.021 262.192 363.748 262.701C362.495 263.189 361.414 263.891 360.504 264.807C359.595 265.703 358.887 266.792 358.382 268.074C357.897 269.336 357.654 270.75 357.654 272.318V280.682C357.654 282.25 357.897 283.674 358.382 284.957C358.887 286.218 359.595 287.307 360.504 288.223C361.414 289.119 362.495 289.821 363.748 290.33C365.021 290.818 366.426 291.062 367.962 291.062H378.573C380.109 291.062 381.504 290.818 382.757 290.33C384.03 289.821 385.122 289.119 386.031 288.223C386.941 287.307 387.638 286.218 388.123 284.957C388.628 283.674 388.881 282.25 388.881 280.682V272.318Z" fill="white"></path><path d="M448 295.001C448 295.571 447.889 296.1 447.667 296.588C447.464 297.077 447.181 297.504 446.818 297.87C446.474 298.216 446.06 298.491 445.575 298.695C445.09 298.898 444.574 299 444.028 299C443.543 299 443.048 298.908 442.543 298.725C442.058 298.542 441.623 298.247 441.239 297.84L412.438 267.555V298.389H404.555V257.999C404.555 257.185 404.778 256.453 405.222 255.801C405.687 255.13 406.273 254.631 406.981 254.305C407.728 254 408.496 253.929 409.285 254.092C410.073 254.234 410.75 254.6 411.316 255.191L440.117 285.445V254.611H448V295.001Z" fill="white"></path><path d="M312.628 74.2056V103.252H322.079V83.6262H387V52H289V125.458H363.034V138.243H289V220H322.079V160.336H312.628V210.579H298.451V147.664H372.486V116.037H298.451V61.4206H377.549V74.2056H312.628Z" fill="url(#paint6_linear)"></path><path d="M448 83.6262V52H415V61.4206H438.571V74.2056H415V220H448V96.4112H438.571V210.579H424.429V83.6262H448Z" fill="url(#paint7_linear)"></path><path d="M189.301 188.374V125.458H247.294V138.243H203.573V147.664H256.809V116.037H179.786V197.794H251.485V210.579H165.515V61.4206H249.9V74.2056H179.786V103.252H189.301V83.6262H259.414V52H156V220H261V188.374H189.301Z" fill="url(#paint8_linear)"></path><path d="M53.317 52H0V61.4206H53.317C98.9527 61.4206 119.511 93.3832 119.511 135.888C119.511 181.196 92.9658 210.579 51.7356 210.579H9.48862V83.6262H53.317C80.3144 83.6262 95.7898 102.131 95.7898 135.888C95.7898 167.402 79.0718 188.374 53.317 188.374H33.2102V96.2991H23.7215V197.794H53.317C84.3809 197.794 105.278 172.897 105.278 135.888C105.278 97.1963 85.8494 74.2056 53.43 74.2056H0V220H51.7356C98.049 220 129 186.467 129 135.888C129 81.9439 98.8398 52 53.317 52Z" fill="url(#paint9_linear)"></path><defs><linearGradient id="paint0_linear" x1="306.272" y1="360.881" x2="306.272" y2="328.346" gradientUnits="userSpaceOnUse"><stop stop-color="#05AAC5"></stop><stop offset="1" stop-color="#71E0EC"></stop></linearGradient><linearGradient id="paint1_linear" x1="306.365" y1="364.94" x2="306.365" y2="325.734" gradientUnits="userSpaceOnUse"><stop stop-color="#05AAC5"></stop><stop offset="1" stop-color="#71E0EC"></stop></linearGradient><linearGradient id="paint2_linear" x1="306.319" y1="369" x2="306.319" y2="323.046" gradientUnits="userSpaceOnUse"><stop stop-color="#05AAC5"></stop><stop offset="1" stop-color="#71E0EC"></stop></linearGradient><linearGradient id="paint3_linear" x1="34.5546" y1="318.028" x2="6.38373" y2="372.059" gradientUnits="userSpaceOnUse"><stop stop-color="#00FFA3"></stop><stop offset="1" stop-color="#DC1FFF"></stop></linearGradient><linearGradient id="paint4_linear" x1="34.5546" y1="318.028" x2="6.38373" y2="372.059" gradientUnits="userSpaceOnUse"><stop stop-color="#00FFA3"></stop><stop offset="1" stop-color="#DC1FFF"></stop></linearGradient><linearGradient id="paint5_linear" x1="34.5546" y1="318.028" x2="6.38373" y2="372.059" gradientUnits="userSpaceOnUse"><stop stop-color="#00FFA3"></stop><stop offset="1" stop-color="#DC1FFF"></stop></linearGradient><linearGradient id="paint6_linear" x1="302.874" y1="5.91666" x2="235.004" y2="277.582" gradientUnits="userSpaceOnUse"><stop stop-color="#00FFA3"></stop><stop offset="1" stop-color="#DC1FFF"></stop></linearGradient><linearGradient id="paint7_linear" x1="302.874" y1="5.91666" x2="235.004" y2="277.582" gradientUnits="userSpaceOnUse"><stop stop-color="#00FFA3"></stop><stop offset="1" stop-color="#DC1FFF"></stop></linearGradient><linearGradient id="paint8_linear" x1="302.874" y1="5.91666" x2="235.004" y2="277.582" gradientUnits="userSpaceOnUse"><stop stop-color="#00FFA3"></stop><stop offset="1" stop-color="#DC1FFF"></stop></linearGradient><linearGradient id="paint9_linear" x1="302.874" y1="5.91666" x2="235.004" y2="277.582" gradientUnits="userSpaceOnUse"><stop stop-color="#00FFA3"></stop><stop offset="1" stop-color="#DC1FFF"></stop></linearGradient></defs></svg>